<svg width="64" height="64" viewBox="0 0 64 64" fill="none" xmlns="http://www.w3.org/2000/svg">
  <defs>
    <linearGradient id="gradient" x1="0" y1="0" x2="1" y2="1">
      <stop offset="0%" stop-color="#7c3aed" />
      <stop offset="100%" stop-color="#22c55e" />
    </linearGradient>
  </defs>
  <rect width="64" height="64" rx="16" fill="#0f172a" />
  <path fill="url(#gradient)" d="M32 14c-9.94 0-18 8.06-18 18s8.06 18 18 18 18-8.06 18-18-8.06-18-18-18zm0 32c-7.73 0-14-6.27-14-14s6.27-14 14-14 14 6.27 14 14-6.27 14-14 14z"/>
  <path fill="url(#gradient)" d="M28 20h8v4h-8v-4zm0 10h12v4h-12v-4zm0 10h8v4h-8v-4z"/>
</svg>
